# Rhino

v 0 0 0
v 5 0 0
v 10 0 0
v 15 0 0
v 0 4.6666666666666661 0
v 5 4.6666666666666661 0
v 10 4.6666666666666661 0
v 15 4.6666666666666661 0
v 0 9.3333333333333321 0
v 5 9.3333333333333321 0
v 10 9.3333333333333321 0
v 15 9.3333333333333321 0
v 0 14 0
v 5 14 0
v 10 14 0
v 15 14 0
vt 0 0
vt 0.3333333432674408 0
vt 0.66666668653488159 0
vt 1 0
vt 0 0.3333333432674408
vt 0.3333333432674408 0.3333333432674408
vt 0.66666668653488159 0.3333333432674408
vt 1 0.3333333432674408
vt 0 0.66666668653488159
vt 0.3333333432674408 0.66666668653488159
vt 0.66666668653488159 0.66666668653488159
vt 1 0.66666668653488159
vt 0 1
vt 0.3333333432674408 1
vt 0.66666668653488159 1
vt 1 1
vn 0 0 1
vn 0 0 1
vn 0 0 1
vn 0 0 1
vn 0 0 1
vn 0 0 1
vn 0 0 1
vn 0 0 1
vn 0 0 1
vn 0 0 1
vn 0 0 1
vn 0 0 1
vn 0 0 1
vn 0 0 1
vn 0 0 1
vn 0 0 1
f 1/1/1 2/2/2 6/6/6 5/5/5
f 2/2/2 3/3/3 7/7/7 6/6/6
f 3/3/3 4/4/4 8/8/8 7/7/7
f 5/5/5 6/6/6 10/10/10 9/9/9
f 6/6/6 7/7/7 11/11/11 10/10/10
f 7/7/7 8/8/8 12/12/12 11/11/11
f 9/9/9 10/10/10 14/14/14 13/13/13
f 10/10/10 11/11/11 15/15/15 14/14/14
f 11/11/11 12/12/12 16/16/16 15/15/15
